<svg width="175" height="50" viewBox="0 0 175 50" fill="none" xmlns="http://www.w3.org/2000/svg">
<path d="M8.6625 36.85C7.7625 36.85 6.8875 36.7375 6.0375 36.5125C5.2125 36.2625 4.475 35.9 3.825 35.425C3.175 34.925 2.65 34.3125 2.25 33.5875C1.875 32.8375 1.6875 31.9625 1.6875 30.9625C1.6875 29.7625 1.9125 28.775 2.3625 28C2.8375 27.2 3.4625 26.5875 4.2375 26.1625C5.0125 25.7125 5.9 25.4 6.9 25.225C7.925 25.025 8.9875 24.925 10.0875 24.925H14.925C14.925 23.95 14.775 23.1 14.475 22.375C14.175 21.625 13.7 21.05 13.05 20.65C12.425 20.225 11.5875 20.0125 10.5375 20.0125C9.9125 20.0125 9.3125 20.0875 8.7375 20.2375C8.1875 20.3625 7.7125 20.575 7.3125 20.875C6.9125 21.175 6.6375 21.575 6.4875 22.075H2.4375C2.5875 21.125 2.925 20.3125 3.45 19.6375C3.975 18.9375 4.625 18.3625 5.4 17.9125C6.175 17.4625 7 17.1375 7.875 16.9375C8.775 16.7125 9.6875 16.6 10.6125 16.6C13.4625 16.6 15.5125 17.4375 16.7625 19.1125C18.0375 20.7625 18.675 23.0375 18.675 25.9375V36.625H15.3375L15.1875 34.1125C14.6125 34.8875 13.925 35.475 13.125 35.875C12.35 36.275 11.575 36.5375 10.8 36.6625C10.025 36.7875 9.3125 36.85 8.6625 36.85ZM9.2625 33.5875C10.3875 33.5875 11.375 33.4 12.225 33.025C13.075 32.625 13.7375 32.0625 14.2125 31.3375C14.6875 30.5875 14.925 29.7125 14.925 28.7125V27.8875H11.4C10.675 27.8875 9.9625 27.9125 9.2625 27.9625C8.5875 27.9875 7.9625 28.0875 7.3875 28.2625C6.8375 28.4125 6.3875 28.675 6.0375 29.05C5.7125 29.425 5.55 29.9625 5.55 30.6625C5.55 31.3375 5.725 31.8875 6.075 32.3125C6.425 32.7375 6.8875 33.0625 7.4625 33.2875C8.0375 33.4875 8.6375 33.5875 9.2625 33.5875ZM21.4348 36.625V16.8625H25.0723L25.2598 19.7125C25.7598 18.9375 26.3348 18.325 26.9848 17.875C27.6348 17.425 28.3473 17.1 29.1223 16.9C29.8973 16.7 30.7098 16.6 31.5598 16.6C31.7848 16.6 31.9973 16.6 32.1973 16.6C32.3973 16.6 32.5848 16.6 32.7598 16.6V20.3125H31.5598C30.1348 20.3125 28.9473 20.6 27.9973 21.175C27.0723 21.75 26.3848 22.55 25.9348 23.575C25.5098 24.6 25.2973 25.775 25.2973 27.1V36.625H21.4348ZM33.8054 36.625V16.8625H37.4429L37.6304 19.7125C38.1304 18.9375 38.7054 18.325 39.3554 17.875C40.0054 17.425 40.7179 17.1 41.4929 16.9C42.2679 16.7 43.0804 16.6 43.9304 16.6C44.1554 16.6 44.3679 16.6 44.5679 16.6C44.7679 16.6 44.9554 16.6 45.1304 16.6V20.3125H43.9304C42.5054 20.3125 41.3179 20.6 40.3679 21.175C39.4429 21.75 38.7554 22.55 38.3054 23.575C37.8804 24.6 37.6679 25.775 37.6679 27.1V36.625H33.8054ZM54.6223 36.85C52.5723 36.85 50.8348 36.4375 49.4098 35.6125C47.9848 34.7625 46.8973 33.575 46.1473 32.05C45.4223 30.525 45.0598 28.7625 45.0598 26.7625C45.0598 24.7375 45.4348 22.975 46.1848 21.475C46.9348 19.95 48.0223 18.7625 49.4473 17.9125C50.8723 17.0375 52.6098 16.6 54.6598 16.6C56.7098 16.6 58.4473 17.0375 59.8723 17.9125C61.2973 18.7625 62.3723 19.95 63.0973 21.475C63.8223 23 64.1848 24.775 64.1848 26.8C64.1848 28.775 63.8098 30.525 63.0598 32.05C62.3348 33.575 61.2598 34.7625 59.8348 35.6125C58.4348 36.4375 56.6973 36.85 54.6223 36.85ZM54.6223 33.4C55.9723 33.4 57.0598 33.1 57.8848 32.5C58.7348 31.9 59.3598 31.1 59.7598 30.1C60.1598 29.075 60.3598 27.9625 60.3598 26.7625C60.3598 25.5625 60.1598 24.4625 59.7598 23.4625C59.3598 22.4625 58.7348 21.6625 57.8848 21.0625C57.0598 20.4375 55.9723 20.125 54.6223 20.125C53.2973 20.125 52.2098 20.4375 51.3598 21.0625C50.5098 21.6625 49.8848 22.4625 49.4848 23.4625C49.1098 24.4625 48.9223 25.5625 48.9223 26.7625C48.9223 27.9875 49.1098 29.1 49.4848 30.1C49.8848 31.1 50.5098 31.9 51.3598 32.5C52.2098 33.1 53.2973 33.4 54.6223 33.4ZM68.5236 36.625L62.3736 16.8625H66.6861L71.0361 32.575L75.6111 16.8625H80.4486L85.0236 32.575L89.2986 16.8625H93.6111L87.4611 36.625H82.5486L77.9736 21.5125L73.4361 36.625H68.5236ZM96.6706 36.625L90.5206 16.8625H94.8331L99.1831 32.575L103.758 16.8625H108.596L113.171 32.575L117.446 16.8625H121.758L115.608 36.625H110.696L106.121 21.5125L101.583 36.625H96.6706ZM124.818 36.625L118.668 16.8625H122.98L127.33 32.575L131.905 16.8625H136.743L141.318 32.575L145.593 16.8625H149.905L143.755 36.625H138.843L134.268 21.5125L129.73 36.625H124.818Z" fill="#242424"/>
<path d="M156.25 18.75H172.5M172.5 18.75V35M172.5 18.75L156.25 35" stroke="#0095FF" stroke-width="3.75" stroke-linecap="square"/>
</svg>
